<svg width="147" height="60" viewBox="0 0 147 60" fill="none" xmlns="http://www.w3.org/2000/svg">
<path d="M3.19043 18.6406C7.20085 17.638 11.335 16.8763 15.5928 16.3555L16.3936 21.0039L7.95605 21.9219L8.19043 28.1523L15.3584 27.8398L15.1631 32.4883L8.26855 32.2734L7.95605 42L3.75684 42.3516L3.19043 18.6406ZM23.791 31.8828C23.791 34.6286 23.9334 37.0098 24.2183 39.0264L27.585 38.8555C28.2002 36.4173 28.5078 34.0361 28.5078 31.7119C28.5078 30.7777 28.4451 29.946 28.3198 29.2168C27.6362 28.875 25.2209 28.7041 21.0737 28.7041H20.2021C19.9629 28.7041 19.7008 28.7155 19.416 28.7383L20.1509 24.7734C20.3446 24.762 20.5212 24.7507 20.6807 24.7393C20.8516 24.7165 21.0225 24.7051 21.1934 24.7051L21.7061 24.6709C21.877 24.6709 22.3555 24.6709 23.1416 24.6709C25.3975 24.6709 27.8698 24.9728 30.5586 25.5767C31.4131 25.7931 31.9372 26.1748 32.1309 26.7217C32.4271 27.5648 32.5752 28.9377 32.5752 30.8403C32.5752 34.3153 32.0454 37.6763 30.9858 40.9233C30.8947 41.2196 30.7865 41.4702 30.6611 41.6753C30.5472 41.8804 30.3421 42.0114 30.0459 42.0684C29.7497 42.1367 29.4022 42.1994 29.0034 42.2563C28.6047 42.3133 28.2116 42.3646 27.8242 42.4102C26.9811 42.4899 26.4001 42.5298 26.0811 42.5298C25.762 42.5298 25.4202 42.5241 25.0557 42.5127C24.6911 42.5127 24.2923 42.5013 23.8594 42.4785C22.7201 42.4215 21.951 42.319 21.5522 42.1709C21.1535 42.0342 20.88 41.7949 20.7319 41.4531C20.5952 41.1113 20.4585 40.5645 20.3218 39.8125C20.0028 38.0579 19.8433 36.0584 19.8433 33.814C19.8433 32.9595 19.866 32.1107 19.9116 31.2676L23.791 30.4985V31.8828ZM40.71 31.8828C40.71 34.6286 40.8524 37.0098 41.1372 39.0264L44.5039 38.8555C45.1191 36.4173 45.4268 34.0361 45.4268 31.7119C45.4268 30.7777 45.3641 29.946 45.2388 29.2168C44.5552 28.875 42.1398 28.7041 37.9927 28.7041H37.1211C36.8818 28.7041 36.6198 28.7155 36.335 28.7383L37.0698 24.7734C37.2635 24.762 37.4401 24.7507 37.5996 24.7393C37.7705 24.7165 37.9414 24.7051 38.1123 24.7051L38.625 24.6709C38.7959 24.6709 39.2744 24.6709 40.0605 24.6709C42.3164 24.6709 44.7887 24.9728 47.4775 25.5767C48.332 25.7931 48.8561 26.1748 49.0498 26.7217C49.346 27.5648 49.4941 28.9377 49.4941 30.8403C49.4941 34.3153 48.9644 37.6763 47.9048 40.9233C47.8136 41.2196 47.7054 41.4702 47.5801 41.6753C47.4661 41.8804 47.2611 42.0114 46.9648 42.0684C46.6686 42.1367 46.3211 42.1994 45.9224 42.2563C45.5236 42.3133 45.1305 42.3646 44.7432 42.4102C43.9001 42.4899 43.319 42.5298 43 42.5298C42.681 42.5298 42.3392 42.5241 41.9746 42.5127C41.61 42.5127 41.2113 42.5013 40.7783 42.4785C39.639 42.4215 38.87 42.319 38.4712 42.1709C38.0724 42.0342 37.799 41.7949 37.6509 41.4531C37.5142 41.1113 37.3774 40.5645 37.2407 39.8125C36.9217 38.0579 36.7622 36.0584 36.7622 33.814C36.7622 32.9595 36.785 32.1107 36.8306 31.2676L40.71 30.4985V31.8828ZM55.1143 41.043C54.4762 40.9128 54.0856 40.3464 53.9424 39.3438C53.708 37.651 53.5908 35.8542 53.5908 33.9531C53.5908 30.763 53.8577 27.7682 54.3916 24.9688C54.5218 24.2917 54.8473 23.862 55.3682 23.6797L57.3213 23.2109C59.4176 22.7031 61.4424 22.3255 63.3955 22.0781V14.0703L67.9268 13.2305L68.0439 22.2344L67.6338 35.9648L63.5127 36.3555L63.3564 26.3164C61.7809 26.4336 60.3031 26.7526 58.9229 27.2734C58.5452 29.6042 58.3564 31.5312 58.3564 33.0547C58.3564 35.2292 58.4085 36.694 58.5127 37.4492C60.1403 37.8789 62.0804 38.2435 64.333 38.543C66.5986 38.8424 68.1546 39.0638 69.001 39.207L67.79 43.4062C62.738 42.612 59.6195 42.0911 58.4346 41.8438C57.2627 41.5964 56.1559 41.3294 55.1143 41.043Z" fill="#EA1D2C"/>
<path opacity="0.6" d="M86.543 17.2344L91.2891 16.6094L91.6992 28.7188L99.2578 28.4453L99.4531 17.3125L104.219 16.6484L104.258 27.3516L103.418 42L99.1797 42.3516L99.1406 32.7617L96.8555 32.8789L91.6602 32.8398L91.3281 42L87.0508 42.3516L86.543 17.2344ZM112.305 41.8047C111.953 41.7656 111.569 41.5117 111.152 41.043C110.475 40.3268 110.124 39.6497 110.098 39.0117L109.707 22.957L114.277 22.4688L114.746 37.5859C115.189 37.8073 115.671 37.918 116.191 37.918C116.947 37.918 118.151 37.5208 119.805 36.7266L120.254 22.7617H124.766L124.473 41.8047L121.23 42.1953L120.391 39.0703L116.309 41.9609L112.305 41.8047ZM130.078 14.1289L134.805 13.2305L134.883 27.3125L134.434 38.3281C134.564 38.3411 134.694 38.3477 134.824 38.3477H135.215C136.608 38.3477 137.76 38.1914 138.672 37.8789C139.453 35.0273 139.844 32.1302 139.844 29.1875C139.844 28.276 139.805 27.5599 139.727 27.0391C139.479 26.9609 139.16 26.8828 138.77 26.8047L137.637 26.6094L136.25 26.3945L137.246 22.0391C139.863 22.4557 141.595 22.8008 142.441 23.0742C143.301 23.3477 143.835 23.6341 144.043 23.9336C144.251 24.2201 144.388 24.5781 144.453 25.0078C144.557 25.7109 144.609 26.6289 144.609 27.7617C144.609 31.2643 144.434 33.901 144.082 35.6719C143.73 37.4297 143.418 38.7318 143.145 39.5781C142.871 40.4245 142.663 40.9583 142.52 41.1797C142.233 41.6615 140.781 42.0391 138.164 42.3125C136.875 42.4557 135.716 42.5273 134.688 42.5273C132.878 42.5273 131.361 42.4818 130.137 42.3906L130.078 14.1289Z" fill="#FFB100"/>
<path d="M48.8711 16.5977L49.7695 21.4414L35.6875 21.5781L21 20.9727L20.6484 16.8516L48.8711 16.5977Z" fill="#EA1D2C"/>
</svg>
